<svg xmlns="http://www.w3.org/2000/svg" width="16" height="11" viewBox="0 0 16 11">
  <metadata><?xpacket begin="﻿" id="W5M0MpCehiHzreSzNTczkc9d"?>
<x:xmpmeta xmlns:x="adobe:ns:meta/" x:xmptk="Adobe XMP Core 6.0-c002 79.164460, 2020/05/12-16:04:17        ">
   <rdf:RDF xmlns:rdf="http://www.w3.org/1999/02/22-rdf-syntax-ns#">
      <rdf:Description rdf:about=""
            xmlns:xmp="http://ns.adobe.com/xap/1.0/">
         <xmp:CreatorTool>Adobe Photoshop CC 2017 (Windows)</xmp:CreatorTool>
      </rdf:Description>
   </rdf:RDF>
</x:xmpmeta>
                                                                                                    
                                                                                                    
                                                                                                    
                                                                                                    
                                                                                                    
                                                                                                    
                                                                                                    
                                                                                                    
                                                                                                    
                                                                                                    
                                                                                                    
                                                                                                    
                                                                                                    
                                                                                                    
                                                                                                    
                                                                                                    
                                                                                                    
                                                                                                    
                                                                                                    
                                                                                                    
                           
<?xpacket end="w"?></metadata>
<defs>
    <style>
      .cls-1 {
        fill: #ffc925;
        fill-rule: evenodd;
      }
    </style>
  </defs>
  <path class="cls-1" d="M1178.38,1645.94c-0.58-.67-1.65-0.94-3.68-0.94h-7.4c-2.08,0-3.16.29-3.74,1-0.56.7-.56,1.73-0.56,3.15v2.7c0,2.75.67,4.15,4.3,4.15h7.4c1.76,0,2.74-.24,3.37-0.83,0.65-.61.93-1.6,0.93-3.32v-2.7C1179,1647.65,1178.96,1646.62,1178.38,1645.94Zm-5.11,4.93-3.35,1.72a0.519,0.519,0,0,1-.24.05,0.5,0.5,0,0,1-.27-0.07,0.484,0.484,0,0,1-.25-0.43v-3.42a0.5,0.5,0,0,1,.25-0.43,0.522,0.522,0,0,1,.5-0.01l3.36,1.7a0.512,0.512,0,0,1,.28.45A0.5,0.5,0,0,1,1173.27,1650.87Z" transform="translate(-1163 -1645)"/>
</svg>
