<svg xmlns="http://www.w3.org/2000/svg" width="8" height="16" viewBox="0 0 8 16">
  <defs>
    <style>
      .cls-1 {
        fill: #fff;
        fill-rule: evenodd;
      }
    </style>
  </defs>
  <path id="Forma_1" data-name="Forma 1" class="cls-1" d="M1057.7,1643h-1.92c-2.16,0-3.55,1.55-3.55,3.94v1.81h-1.93a0.315,0.315,0,0,0-.3.33v2.63a0.321,0.321,0,0,0,.3.33h1.93v6.63a0.321,0.321,0,0,0,.3.33h2.52a0.315,0.315,0,0,0,.3-0.33v-6.63h2.26a0.321,0.321,0,0,0,.3-0.33v-2.63a0.317,0.317,0,0,0-.09-0.23,0.3,0.3,0,0,0-.21-0.1h-2.26v-1.54a0.893,0.893,0,0,1,1.06-1.11h1.29a0.321,0.321,0,0,0,.3-0.33v-2.44A0.321,0.321,0,0,0,1057.7,1643Z" transform="translate(-1050 -1643)"/>
</svg>
